<?xml version="1.0" encoding="UTF-8"?>
<svg version="1.1" xmlns="http://www.w3.org/2000/svg" width="1536" height="1024">
<path d="M0 0 C506.88 0 1013.76 0 1536 0 C1536 337.92 1536 675.84 1536 1024 C1029.12 1024 522.24 1024 0 1024 C0 686.08 0 348.16 0 0 Z " fill="#FDFCFD" transform="translate(0,0)"/>
<path d="M0 0 C0.82491943 -0.01393799 1.64983887 -0.02787598 2.49975586 -0.04223633 C7.10784164 -0.00606316 10.59182927 0.1512952 14.1875 3.375 C14.1875 4.695 14.1875 6.015 14.1875 7.375 C13.61644531 7.47296875 13.04539062 7.5709375 12.45703125 7.671875 C-25.71710065 14.71193748 -58.51497998 44.30673403 -82.8125 73.375 C-83.43898438 74.11234375 -84.06546875 74.8496875 -84.7109375 75.609375 C-101.86198213 96.13962173 -117.2259834 118.33942453 -130.8125 141.375 C-131.20147461 142.03113281 -131.59044922 142.68726563 -131.99121094 143.36328125 C-139.96091856 156.83833907 -147.41448488 170.58014318 -154.8125 184.375 C-155.75041523 186.11902066 -156.68833466 187.86303908 -157.62654114 189.60690308 C-159.23172457 192.59128054 -160.83474668 195.57681693 -162.4375 198.5625 C-162.91450851 199.45059357 -162.91450851 199.45059357 -163.40115356 200.35662842 C-166.57294519 206.26514693 -169.72788256 212.17972259 -172.78515625 218.1484375 C-195.0913184 261.68652736 -195.0913184 261.68652736 -209.9375 267.625 C-216.33243422 268.8627292 -222.24680357 269.58787468 -228.25 266.75 C-232.28635684 263.00898634 -234.55188444 259.97706623 -235.44921875 254.4609375 C-235.49931795 252.89133311 -235.51339116 251.32034663 -235.5 249.75 C-235.49347412 248.42198364 -235.49347412 248.42198364 -235.48681641 247.06713867 C-234.79332595 224.9873564 -228.21329413 202.52958872 -223.15234375 181.1484375 C-221.32556379 173.3797882 -219.79343029 165.56009151 -218.28027344 157.72558594 C-217.82087068 155.4170631 -217.32662695 153.11896035 -216.8203125 150.8203125 C-211.93195267 128.35420572 -209.44641741 105.90627265 -209.3125 82.9375 C-209.30214722 82.13218842 -209.29179443 81.32687683 -209.28112793 80.49716187 C-209.1392433 66.56626585 -209.54148426 48.99334477 -219.8125 38.375 C-224.27616964 34.29264887 -228.93946301 33.74939657 -234.85546875 33.9921875 C-253.28995428 36.37868629 -268.73766832 49.06662397 -281.8125 61.375 C-282.41578125 61.91382813 -283.0190625 62.45265625 -283.640625 63.0078125 C-294.11462427 72.74765294 -300.99930342 85.49396009 -306.8125 98.375 C-307.19535156 99.19484375 -307.57820313 100.0146875 -307.97265625 100.859375 C-311.16070768 108.74794878 -311.36000972 119.16987559 -308.375 127.125 C-307.6015625 128.73375 -307.6015625 128.73375 -306.8125 130.375 C-306.4825 131.365 -306.1525 132.355 -305.8125 133.375 C-303.51715742 134.51045562 -303.51715742 134.51045562 -300.8125 135.375 C-299.7296875 135.931875 -299.7296875 135.931875 -298.625 136.5 C-289.22216978 139.42532496 -280.45805767 136.3900556 -271.8125 132.375 C-264.4757809 128.0496924 -258.73613134 122.52483928 -253.1015625 116.18359375 C-250.8125 114.375 -250.8125 114.375 -248.0234375 114.59765625 C-247.29382813 114.85417969 -246.56421875 115.11070312 -245.8125 115.375 C-246.19735032 120.42498715 -248.89938881 123.23959122 -252.25 126.75 C-252.79277588 127.32363281 -253.33555176 127.89726562 -253.89477539 128.48828125 C-263.23437424 138.13550852 -275.39480949 145.73768246 -289.1328125 146.578125 C-300.72451431 146.72093857 -310.10592598 145.66965009 -318.8125 137.375 C-326.69153749 128.74557798 -328.62833639 120.26904928 -328.22265625 108.828125 C-326.62327804 85.66471642 -308.43700397 65.17721947 -291.8125 50.375 C-279.35683648 39.81680053 -264.53534083 30.98703331 -248.8125 26.375 C-247.87019531 26.07851563 -246.92789063 25.78203125 -245.95703125 25.4765625 C-230.71525443 21.26527309 -212.55539181 21.35199358 -198.5 29.0625 C-188.8973842 35.34645178 -182.82920029 44.73471435 -179.9074707 55.80371094 C-171.2099077 98.81268115 -183.40245367 146.67933872 -193.46304321 188.63017273 C-195.60601689 197.58999506 -197.03637146 206.6086851 -198.34765625 215.72265625 C-198.8125 218.375 -198.8125 218.375 -199.8125 220.375 C-199.852492 222.37460012 -199.85596799 224.37547242 -199.8125 226.375 C-191.9048356 213.34087972 -184.21422656 200.19155633 -176.61328125 186.9765625 C-170.72904365 176.74715737 -164.79083239 166.54967888 -158.8125 156.375 C-158.29059082 155.48554688 -157.76868164 154.59609375 -157.23095703 153.6796875 C-150.6104702 142.42506985 -143.70229235 131.42760434 -136.35107422 120.63574219 C-134.77998363 118.32722126 -133.21961585 116.01170279 -131.66015625 113.6953125 C-115.71357798 90.0935026 -98.6344636 67.85673953 -78.8125 47.375 C-78.10577148 46.63572266 -77.39904297 45.89644531 -76.67089844 45.13476562 C-62.55987966 30.40642875 -47.94273266 17.85677385 -29.8125 8.375 C-28.45705078 7.63830078 -28.45705078 7.63830078 -27.07421875 6.88671875 C-24.68381487 5.62645916 -22.28218204 4.4707917 -19.8125 3.375 C-19.09707031 3.0553125 -18.38164063 2.735625 -17.64453125 2.40625 C-11.84427193 0.24987132 -6.12185681 0.06778246 0 0 Z " fill="#B68FCA" transform="translate(785.8125,299.625)"/>
<path d="M0 0 C7.61539976 6.40385889 11.4160271 14.01188167 12.4375 23.8125 C12.55264916 25.31169691 12.66080333 26.81153543 12.75 28.3125 C14.6990625 28.065 14.6990625 28.065 16.6875 27.8125 C26.32397479 26.76041652 26.32397479 26.76041652 30.75 27.3125 C33.70150335 30.26400335 33.58383606 33.76824299 34.125 37.75 C35.07817609 44.26827693 36.1935396 50.6951615 37.625 57.125 C39.76046779 66.81313785 41.34909622 76.5866489 42.91162109 86.38012695 C43.90777796 92.55375369 45.00906295 98.66874833 46.3515625 104.77734375 C47.36513589 109.39437328 48.21322449 113.85024054 48.5625 118.5625 C48.65144531 119.61953125 48.74039063 120.6765625 48.83203125 121.765625 C48.75 124.3125 48.75 124.3125 46.75 126.3125 C44.26339722 126.84326172 44.26339722 126.84326172 41.08544922 127.2421875 C39.30121048 127.47252686 39.30121048 127.47252686 37.48092651 127.70751953 C36.18526764 127.86591309 34.88960876 128.02430664 33.5546875 128.1875 C32.20572636 128.35846939 30.85686073 128.53019387 29.50808716 128.70263672 C25.94112894 129.15659268 22.3729584 129.60022059 18.80444336 130.04174805 C15.23473472 130.48521247 11.66625151 130.9383042 8.09765625 131.390625 C0.31640553 132.37511464 -7.46656818 133.34539737 -15.25 134.3125 C-27.50519818 135.83453623 -27.50519818 135.83453623 -39.75 137.4375 C-40.9978125 137.60507812 -42.245625 137.77265625 -43.53125 137.9453125 C-44.4284375 138.06648437 -45.325625 138.18765625 -46.25 138.3125 C-47.55683765 135.69882469 -47.56881785 133.51167517 -47.79077148 130.59130859 C-47.88434433 129.38759613 -47.97791718 128.18388367 -48.07432556 126.94369507 C-48.17225906 125.62938507 -48.27019257 124.31507507 -48.37109375 122.9609375 C-48.47658676 121.58636545 -48.58247442 120.21182364 -48.68873596 118.83731079 C-48.96943928 115.19385475 -49.24524243 111.55004428 -49.51989746 107.90612793 C-49.95325764 102.16955024 -50.3947475 96.43358884 -50.83454895 90.69750214 C-50.99593895 88.58796085 -51.15631096 86.47834402 -51.31652832 84.36871338 C-51.80325908 77.978954 -52.30384126 71.59095167 -52.8515625 65.20605469 C-52.94478287 64.11934479 -53.03800323 63.03263489 -53.13404846 61.91299438 C-53.30557308 59.93580322 -53.48003876 57.95886357 -53.65830994 55.98226929 C-54.34653218 48.07791754 -54.45992796 40.24311193 -54.25 32.3125 C-50.95 32.3125 -47.65 32.3125 -44.25 32.3125 C-44.30220703 30.86230469 -44.30220703 30.86230469 -44.35546875 29.3828125 C-44.62008472 16.65604465 -43.4421173 8.94380264 -34.6015625 -0.65625 C-25.24710917 -8.73650869 -10.03794421 -5.21200949 0 0 Z " fill="#AB90CA" transform="translate(483.25,465.6875)"/>
<path d="M0 0 C5.22161034 2.51756213 8.66845275 6.10945259 11.09765625 11.3828125 C12.43675532 16.75080271 12.24800557 21.99080854 12.1875 27.5 C12.1865332 29.17255859 12.1865332 29.17255859 12.18554688 30.87890625 C12.15779875 36.05238934 11.94729972 40.90111794 11 46 C11.66 46 12.32 46 13 46 C12.96777344 45.00613281 12.93554688 44.01226563 12.90234375 42.98828125 C13.1687649 32.10764146 16.27537682 20.91999303 24 13 C29.28169831 8.78329988 33.86447177 5.61825595 40.7734375 5.71875 C45.99787907 6.37867946 49.9055122 8.82132083 53.4375 12.625 C56.41406467 17.14937831 56.59178121 20.65729921 56 26 C53.17732485 35.69387294 47.29785756 41.72650602 38.6640625 46.578125 C37.34535156 47.28195312 37.34535156 47.28195312 36 48 C34.65035156 48.73476563 34.65035156 48.73476563 33.2734375 49.484375 C26.57794944 53 26.57794944 53 22 53 C22.495 54.98 22.495 54.98 23 57 C24.05058594 56.45730469 25.10117188 55.91460938 26.18359375 55.35546875 C39.70326686 48.43040429 51.44359927 42.67190821 66.9375 47.5625 C71.93039454 49.6033912 75.19790539 52.39044741 78 57 C79.54033038 61.62099115 79.5385555 65.44769296 77.9375 70.0625 C74.37922294 75.45730716 69.63281434 79.52795516 63.41796875 81.5234375 C50.021676 84.16374076 40.02789133 80.32302996 28.875 73.1875 C27.98554687 72.58292969 27.09609375 71.97835937 26.1796875 71.35546875 C24.14473144 69.82397252 24.14473144 69.82397252 22 70 C21.67 70.66 21.34 71.32 21 72 C21.71542969 72.25652344 22.43085937 72.51304687 23.16796875 72.77734375 C33.15158783 77.08751309 40.79949843 85.09304466 47 93.8125 C48.98555272 100.14144929 49.19381907 106.56972547 46.25 112.5625 C42.26023026 116.88475055 38.38282841 119.50634609 32.45703125 120.37109375 C24.24483277 120.57730848 18.26599507 118.61220272 11.9609375 113.2734375 C5.81311949 106.91633207 2.83440286 99.18223776 2.625 90.375 C2.81126831 85.39590492 3.73783316 80.81201108 5 76 C2.64828687 76.88215233 2.64828687 76.88215233 1.9921875 79.9921875 C1.72583496 80.91849976 1.72583496 80.91849976 1.45410156 81.86352539 C-1.73393594 92.93698279 -6.7803878 101.69102502 -16.82421875 107.87890625 C-23.55600559 111.34752891 -29.47321133 111.87267115 -37 111 C-42.03030359 109.22832075 -46.00221042 106.03428117 -48.3671875 101.14453125 C-50.01396934 95.56377058 -50.15853237 89.86791409 -47.96484375 84.4375 C-44.45975007 78.65751266 -39.85595574 75.21291532 -34 72 C-33.33484375 71.60941406 -32.6696875 71.21882812 -31.984375 70.81640625 C-24.59031788 66.96415893 -15.27376364 66 -7 66 C-7 65.01 -7 64.02 -7 63 C-7.76441406 63.2165625 -8.52882813 63.433125 -9.31640625 63.65625 C-21.85847838 66.91628319 -35.63866095 68.43406496 -47.28125 61.67578125 C-51.53990115 58.73638616 -54.43978607 56.07069526 -56 51 C-56.64303055 46.01854817 -56.56539023 42.2212429 -54.4375 37.625 C-49.66426631 32.48459449 -46.0467868 30.76419034 -39.125 30.5 C-33.28736527 30.71809345 -29.01063968 32.06493552 -24 35 C-23.27296875 35.42410156 -22.5459375 35.84820312 -21.796875 36.28515625 C-16.37521673 39.6879103 -11.73610665 43.78175952 -7.06640625 48.14453125 C-5.13670354 50.04198998 -5.13670354 50.04198998 -3 51 C-4.38851705 47.73663252 -5.89295258 46.08419557 -8.6875 43.9375 C-16.11766241 37.65563541 -22.44147137 27.86455062 -23.375 18.0625 C-23.14102703 13.03208119 -22.03165752 8.18877237 -18.53515625 4.421875 C-12.60732441 -0.62185478 -7.58102872 -0.7144425 0 0 Z " fill="#F9A598" transform="translate(1034,476)"/>
<path d="M0 0 C5.26006504 1.78643718 7.33112649 4.19714204 10 9 C10.4534904 11.76805831 10.66964893 13.99397243 10.625 16.75 C10.6144458 17.49024414 10.6038916 18.23048828 10.59301758 18.99316406 C9.34425778 48.87532543 -14.06618516 79.159123 -35 98.9375 C-40.54876235 103.71811121 -46.60638328 107.46734018 -53 111 C-53.67417969 111.38414062 -54.34835937 111.76828125 -55.04296875 112.1640625 C-59.55462072 114.29539478 -64.27003065 114.29551683 -69.1875 114.375 C-69.87755127 114.38917969 -70.56760254 114.40335938 -71.27856445 114.41796875 C-75.70926519 114.37500959 -78.46887392 113.67682138 -82 111 C-89.26624247 103.39579276 -89.27857814 96.65483416 -89.125 86.625 C-89.11597656 85.50738281 -89.10695313 84.38976562 -89.09765625 83.23828125 C-89.07418346 80.49196538 -89.04134728 77.74609528 -89 75 C-89.73863281 75.87140625 -90.47726562 76.7428125 -91.23828125 77.640625 C-94.47202739 81.44458963 -97.73300262 85.22458824 -101 89 C-101.48533203 89.56493164 -101.97066406 90.12986328 -102.47070312 90.71191406 C-111.75004717 101.45950874 -123.01332289 112.58907936 -137.7109375 114.4765625 C-145.61695311 114.77639144 -151.77922537 114.12793584 -158 109 C-160.4375 106.4375 -160.4375 106.4375 -162 104 C-162.35578125 103.45601562 -162.7115625 102.91203125 -163.078125 102.3515625 C-164.42088113 98.92639645 -164.33955052 95.5634634 -164.3125 91.9375 C-164.30831055 91.17671143 -164.30412109 90.41592285 -164.29980469 89.63208008 C-164.17496626 83.3655896 -163.06703906 77.92251627 -161 72 C-160.61714844 70.67935547 -160.61714844 70.67935547 -160.2265625 69.33203125 C-154.05525479 48.80818682 -142.76317012 26.776044 -127 12 C-122.15050381 9.57525191 -116.10818258 10.75474571 -111.125 12.3125 C-108.06995439 13.34727351 -105.73821212 14.2085004 -104 17 C-103.90353034 24.2914981 -107.05234379 29.21296107 -110.75 35.3125 C-129.26081958 65.2708863 -129.26081958 65.2708863 -136 99 C-134.89674453 100.3337793 -134.89674453 100.3337793 -132.125 100.0625 C-118.9134548 97.9693128 -107.93825061 82.11246933 -100.49560547 72.07763672 C-88.85222625 55.90310895 -78.7788087 38.57561855 -74.65625 18.9296875 C-74 16 -74 16 -73 15 C-63.81686417 13.99969413 -57.47871055 15.98372554 -49.9375 21.0625 C-45.79620765 27.34123356 -47.81048163 34.60452495 -49.23828125 41.59033203 C-50.51304531 47.43746068 -51.95381451 53.16102051 -53.9375 58.8125 C-58.12068689 70.74541559 -62.34298341 84.25657962 -61 97 C-57.1567255 98.0616038 -55.22823905 98.09600213 -51.75 96.125 C-30.88145556 83.41791601 -16.54927049 53.66652742 -10.8515625 30.63671875 C-9.83933725 25.8400293 -9.73804151 21.19932798 -9.8125 16.3125 C-9.81314453 15.49716797 -9.81378906 14.68183594 -9.81445312 13.84179688 C-9.84636382 9.45584914 -10.12830807 5.31661843 -11 1 C-7.5388228 -0.7305886 -3.79111116 -0.34522766 0 0 Z " fill="#D196C3" transform="translate(828,417)"/>
<path d="M0 0 C5.40939262 4.34075387 5.40939262 4.34075387 5.87890625 8.01953125 C5.546875 10.41796875 5.546875 10.41796875 3.546875 12.41796875 C-0.97576814 12.1667108 -3.81731509 9.94722782 -7.453125 7.41796875 C-14.18703707 5.17333139 -20.36877277 6.13964544 -26.78515625 8.96484375 C-50.93155427 22.11632261 -71.77447386 48.38201532 -80.453125 74.41796875 C-80.54580088 76.12429523 -80.58310702 77.83413462 -80.578125 79.54296875 C-80.58070313 80.43242188 -80.58328125 81.321875 -80.5859375 82.23828125 C-80.69614485 84.39587963 -80.69614485 84.39587963 -79.453125 85.41796875 C-72.88398754 86.23911093 -68.88847517 83.96814684 -63.453125 80.41796875 C-60.85277032 78.35352473 -58.5203058 76.10561074 -56.203125 73.73046875 C-55.5647168 73.08182861 -54.92630859 72.43318848 -54.26855469 71.76489258 C-42.73405001 59.72621751 -34.11109249 45.55982734 -25.59863281 31.31640625 C-19.26859461 20.82570356 -19.26859461 20.82570356 -16.453125 19.41796875 C-8.56892532 18.53439465 -0.85039979 20.0398764 5.671875 24.60546875 C6.290625 25.20359375 6.909375 25.80171875 7.546875 26.41796875 C5.48056925 33.20415185 2.7566198 39.50921612 -0.265625 45.91796875 C-9.81796795 64.39198336 -9.81796795 64.39198336 -11.453125 84.41796875 C-9.50454773 86.82960903 -9.50454773 86.82960903 -5.890625 86.48046875 C6.70721169 84.47936834 15.98566177 69.43800807 22.984375 59.91796875 C28.82980897 51.82560035 33.75060656 43.37075691 38.41015625 34.55419922 C39.67562924 32.17600147 40.96513719 29.81235522 42.265625 27.453125 C42.67748047 26.70554932 43.08933594 25.95797363 43.51367188 25.18774414 C44.546875 23.41796875 44.546875 23.41796875 45.546875 22.41796875 C47.984375 22.23046875 47.984375 22.23046875 50.546875 22.41796875 C52.546875 24.41796875 52.546875 24.41796875 52.89453125 27.06640625 C52.4626161 31.23026244 50.92115891 34.40512214 48.984375 38.04296875 C48.61795898 38.74808594 48.25154297 39.45320313 47.87402344 40.1796875 C46.77992319 42.26747707 45.66623371 44.34363627 44.546875 46.41796875 C43.99644531 47.45695312 43.44601562 48.4959375 42.87890625 49.56640625 C33.23611183 66.94724557 20.11272565 83.33705792 3.546875 94.41796875 C2.38285156 95.24361328 2.38285156 95.24361328 1.1953125 96.0859375 C-6.28230311 100.67272233 -15.92849987 100.74825784 -24.453125 99.41796875 C-30.39218846 97.11450021 -33.26165163 93.77686018 -36.453125 88.41796875 C-38.44089362 83.21190809 -38.97777948 77.93447864 -39.453125 72.41796875 C-40.05898438 73.11921875 -40.66484375 73.82046875 -41.2890625 74.54296875 C-51.04547671 85.59023161 -63.90152197 98.08690243 -79.41674805 99.61083984 C-98.02586218 100.3428708 -98.02586218 100.3428708 -104.453125 94.41796875 C-110.1237251 88.11270294 -110.88267076 82.53731189 -110.78125 74.296875 C-109.12562409 54.72501158 -94.82737789 38.57365115 -81.453125 25.41796875 C-80.65140869 24.62253662 -80.65140869 24.62253662 -79.83349609 23.81103516 C-61.62301414 5.9091086 -25.33714671 -16.34003888 0 0 Z " fill="#E8A1AB" transform="translate(939.453125,432.58203125)"/>
<path d="M0 0 C-1.64071322 9.55366848 -15.23903351 16.9933854 -22.58056641 22.30810547 C-35.56409611 31.38740525 -49.51407442 38.65405576 -64 45 C-64.86351074 45.38285156 -65.72702148 45.76570312 -66.61669922 46.16015625 C-80.1426292 52.10734549 -93.66226969 56.49296179 -108 60 C-109.12937988 60.28617188 -110.25875977 60.57234375 -111.42236328 60.8671875 C-129.80077146 65.51705642 -148.14046354 69.01666324 -167 71 C-167.80346863 71.08680023 -168.60693726 71.17360046 -169.43475342 71.26303101 C-183.94651125 72.79569845 -198.32035358 73.28816131 -212.90820312 73.20581055 C-216.26179601 73.18743537 -219.61511165 73.18530287 -222.96875 73.18554688 C-232.88440305 73.16962579 -242.7835929 73.05944465 -252.6875 72.55078125 C-253.43815735 72.51228561 -254.1888147 72.47378998 -254.96221924 72.43412781 C-260.31785036 72.12120771 -265.53566724 71.38362962 -270.81640625 70.46875 C-275.59246326 69.76552688 -280.37954268 69.5581961 -285.19921875 69.34375 C-288.90616751 69.00848639 -292.38026819 68.35728408 -296.01538086 67.59326172 C-299.53818811 66.89302273 -303.07549493 66.30836051 -306.62109375 65.73828125 C-308.04728477 65.50774889 -309.47347284 65.27719823 -310.8996582 65.04663086 C-311.6380191 64.92738251 -312.37638 64.80813416 -313.13711548 64.68527222 C-326.42145549 62.53257434 -339.63037465 60.14586189 -352.8125 57.4375 C-364.03121372 55.13866831 -375.25655612 53.01344394 -386.5625 51.1875 C-387.75528564 50.992771 -388.94807129 50.79804199 -390.17700195 50.59741211 C-393.78052917 50.02890844 -397.38662976 49.50215808 -401 49 C-401.67029236 48.90610992 -402.34058472 48.81221985 -403.03118896 48.71548462 C-414.6217535 47.13440571 -426.04994575 46.71434292 -437.74072266 46.79418945 C-440.49781607 46.81248551 -443.25457068 46.81469768 -446.01171875 46.81445312 C-467.97713826 46.69284217 -467.97713826 46.69284217 -489.6875 49.5625 C-490.48857178 49.72669434 -491.28964355 49.89088867 -492.11499023 50.06005859 C-503.21903997 52.50399177 -516.47182023 55.64788015 -526 62 C-526.99 62 -527.98 62 -529 62 C-526.92389786 55.77169358 -517.62305787 52.43044995 -511.984375 49.35546875 C-505.54318291 46.16016535 -498.93876574 43.8730688 -492.0625 41.8125 C-491.29615234 41.57450684 -490.52980469 41.33651367 -489.74023438 41.09130859 C-472.20146402 36.1136186 -453.91803596 35.47888277 -435.8125 35.625 C-434.25437088 35.63197906 -434.25437088 35.63197906 -432.6647644 35.63909912 C-394.14142948 35.83968218 -356.6205308 41.38208955 -318.67871094 47.66503906 C-309.89722618 49.08783897 -301.07724601 50.10558702 -292.23266602 51.04956055 C-291.19940186 51.16082275 -290.1661377 51.27208496 -289.1015625 51.38671875 C-287.72991943 51.52920044 -287.72991943 51.52920044 -286.33056641 51.67456055 C-284 52 -284 52 -281 53 C-278.08019909 53.20610359 -275.17321043 53.37310823 -272.25 53.5 C-270.67173663 53.56985756 -269.09360377 53.64273441 -267.515625 53.71875 C-266.81727539 53.74904297 -266.11892578 53.77933594 -265.39941406 53.81054688 C-263.49580937 53.96085184 -261.59970938 54.20566833 -259.71044922 54.4831543 C-244.3515746 56.62256327 -228.59396398 56.20412398 -213.125 56.1875 C-211.99627472 56.18656342 -210.86754944 56.18562683 -209.70462036 56.18466187 C-165.66916905 56.10555463 -120.80120177 51.7784779 -79 37 C-78.0625293 36.67725098 -77.12505859 36.35450195 -76.15917969 36.02197266 C-51.61787939 27.52748928 -25.31971302 17.46787592 -4.71484375 1.1953125 C-3 0 -3 0 0 0 Z " fill="#E098B1" transform="translate(972,573)"/>
<path d="M0 0 C5.36787898 1.88869816 8.45991584 4.91983169 11 10 C13.13471166 21.48782978 6.84888913 30.89358936 0.96875 40.22265625 C-2.7558994 45.59531521 -7.11692436 51.85296553 -13 55 C-22.91211031 54.53562003 -33.56006444 42.77940503 -40 36 C-45.86834423 28.25631416 -49.8480697 21.22205761 -48.61328125 11.34375 C-47.68918605 7.81217597 -45.8851038 6.12948138 -43 4 C-37.53559728 2.17853243 -32.90529027 2.29280557 -27.75 4.75 C-24.68937557 6.4550329 -22.16968725 8.19748731 -20 11 C-20 11.99 -20 12.98 -20 14 C-19.34 14 -18.68 14 -18 14 C-18.103125 13.13375 -18.20625 12.2675 -18.3125 11.375 C-17.89666283 6.88395856 -16.1038301 5.17601219 -13 2 C-8.73157615 -0.8456159 -5.0082136 -0.50004005 0 0 Z " fill="#FAA091" transform="translate(498,522)"/>
<path d="M0 0 C2.01822917 0.06510417 4.03645833 0.13020833 6.0546875 0.1953125 C6.11527344 1.44828125 6.17585938 2.70125 6.23828125 3.9921875 C6.32271006 5.64323974 6.40735689 7.29428085 6.4921875 8.9453125 C6.53150391 9.7703125 6.57082031 10.5953125 6.61132812 11.4453125 C6.65322266 12.24453125 6.69511719 13.04375 6.73828125 13.8671875 C6.77493896 14.6003418 6.81159668 15.33349609 6.84936523 16.08886719 C6.99159445 18.15997532 6.99159445 18.15997532 7.53846741 19.9690094 C8.15602887 22.63236758 8.34205175 25.19365645 8.51953125 27.92260742 C8.59631104 29.07448044 8.67309082 30.22635345 8.75219727 31.41313171 C8.87099243 33.27564323 8.87099243 33.27564323 8.9921875 35.17578125 C9.12208465 37.1358508 9.25198391 39.09592022 9.38200378 41.05598164 C9.56330639 43.80235663 9.7413289 46.54894038 9.91931152 49.29553223 C10.22965108 54.08047013 10.5430976 58.86520167 10.85961914 63.6497345 C11.02760124 66.19393685 11.19355094 68.73827445 11.35717773 71.28276062 C11.77345355 77.61330354 12.32783232 83.89352167 13.0546875 90.1953125 C13.11642541 92.5487617 13.1419678 94.90368407 13.1171875 97.2578125 C13.10816406 98.38316406 13.09914063 99.50851562 13.08984375 100.66796875 C13.07824219 101.50199219 13.06664062 102.33601562 13.0546875 103.1953125 C5.74341991 102.62187975 -4.62247244 101.51815256 -9.9453125 96.1953125 C-10.15531416 93.65058646 -10.22661855 91.24079936 -10.1953125 88.6953125 C-10.19072021 87.92155273 -10.18612793 87.14779297 -10.18139648 86.35058594 C-10.00309938 74.18859781 -9.6175823 61.46018638 -7.45458984 49.4765625 C-6.76214162 45.01515113 -6.52552737 40.55911985 -6.26171875 36.0546875 C-6.13773534 34.07810204 -6.01337533 32.10154017 -5.88867188 30.125 C-5.69603121 27.02202995 -5.50625695 23.91896881 -5.32299805 20.81542969 C-5.14417906 17.81127069 -4.95385173 14.80802027 -4.76171875 11.8046875 C-4.70955704 10.87138611 -4.65739532 9.93808472 -4.60365295 8.97650146 C-4.54696945 8.11510559 -4.49028595 7.25370972 -4.43188477 6.36621094 C-4.36312889 5.22753571 -4.36312889 5.22753571 -4.29298401 4.06585693 C-3.78559293 1.33598827 -2.77783409 0.278899 0 0 Z " fill="#AD8FCA" transform="translate(419.9453125,498.8046875)"/>
<path d="M0 0 C10.20751864 3.11490182 18.7547995 13.24673953 24.7265625 21.64453125 C26.71211522 27.97348054 26.92038157 34.40175672 23.9765625 40.39453125 C19.98679276 44.7167818 16.10939091 47.33837734 10.18359375 48.203125 C1.97139527 48.40933973 -4.00744243 46.44423397 -10.3125 41.10546875 C-16.48259008 34.72533305 -19.44040934 26.97960969 -19.6484375 18.14453125 C-19.47383022 13.47042857 -18.62281526 9.30184508 -17.2734375 4.83203125 C-16.60957031 4.72246094 -15.94570312 4.61289062 -15.26171875 4.5 C-9.61853555 3.51833502 -9.61853555 3.51833502 -4.4609375 1.14453125 C-2.2734375 -0.16796875 -2.2734375 -0.16796875 0 0 Z " fill="#F8A395" transform="translate(1056.2734375,548.16796875)"/>
<path d="M0 0 C4.42993555 3.84452 6.80043487 7.35576204 7.25 13.3125 C6.86490694 18.99262261 4.92586408 22.37465567 0.8125 26.1875 C-7.01645443 32.37594738 -15.17384286 33.12268389 -25 32 C-33.86722691 29.55199257 -43.45874876 24.54125124 -50 18 C-50.07101831 13.58976285 -49.54214939 8.84348893 -46.640625 5.375 C-44.50069011 3.93575176 -42.38727115 2.98641907 -40 2 C-38.80246094 1.46375 -37.60492187 0.9275 -36.37109375 0.375 C-24.24995045 -4.79983577 -12.07108606 -6.79615975 0 0 Z " fill="#F8A396" transform="translate(1106,526)"/>
<path d="M0 0 C5.89351848 2.69932144 10.1258267 7.26516538 12.546875 13.3125 C13.41839787 20.76172703 13.64130168 27.6109037 8.97265625 33.765625 C4.87477097 38.21154985 0.7842678 40.92847823 -5.28515625 41.6484375 C-11.90208139 41.73515998 -17.05295407 41.36890747 -22.453125 37.3125 C-27.43663133 32.32899367 -30.52393052 26.98887292 -30.890625 19.875 C-30.65677922 14.14577832 -28.73295185 9.69811928 -24.76953125 5.55078125 C-17.43513555 -0.96342397 -9.71757533 -2.72339691 0 0 Z " fill="#FAA295" transform="translate(753.453125,555.6875)"/>
<path d="M0 0 C5.06508622 2.35232469 8.29696266 5.20330032 10.8359375 10.28125 C11.82638567 17.96128253 9.76289229 23.80849722 5.5859375 30.19140625 C1.60344835 35.33922603 -3.49247936 38.24974301 -9.1640625 41.28125 C-10.49630859 42.01601563 -10.49630859 42.01601563 -11.85546875 42.765625 C-19.53184473 46.83833715 -19.53184473 46.83833715 -24.1640625 46.28125 C-26.7890625 43.84375 -26.7890625 43.84375 -29.1640625 41.28125 C-30.1540625 40.95125 -31.1440625 40.62125 -32.1640625 40.28125 C-32.48018512 28.92612554 -30.2765116 17.45899852 -23.171875 8.33984375 C-16.89165165 1.90078207 -9.1154071 -3.02749983 0 0 Z " fill="#F8A295" transform="translate(1079.1640625,482.71875)"/>
<path d="M0 0 C1.05960938 0.62068359 1.05960938 0.62068359 2.140625 1.25390625 C2.86765625 1.67800781 3.5946875 2.10210937 4.34375 2.5390625 C10.3162096 6.2875118 16.7582618 10.70355638 21.140625 16.25390625 C20.98046875 18.76171875 20.98046875 18.76171875 20.140625 21.25390625 C19.96402344 21.99253906 19.78742188 22.73117187 19.60546875 23.4921875 C19.1171875 25.41276042 18.62890625 27.33333333 18.140625 29.25390625 C6.24514884 32.975396 -7.21119412 34.72937156 -18.859375 29.25390625 C-24.04992569 26.24089823 -28.04136634 23.1624344 -29.859375 17.25390625 C-30.50240555 12.27245442 -30.42476523 8.47514915 -28.296875 3.87890625 C-20.51949936 -4.49672906 -10.03888283 -5.18194132 0 0 Z " fill="#F9A295" transform="translate(1007.859375,509.74609375)"/>
<path d="M0 0 C2.9375 2.125 2.9375 2.125 5 5 C5.3125 8.3125 5.3125 8.3125 5 11 C5.78375 10.34 6.5675 9.68 7.375 9 C11.51031299 6.22667554 16.18668483 6.08041655 21 7 C23.8937313 9.13188611 23.98430963 9.8988843 24.5625 13.625 C24.28107574 20.01567593 20.47142398 24.61144428 16.01953125 28.9140625 C10.24521522 33.68917995 3.75462362 36.8426289 -3 40 C-3.65355469 40.38542969 -4.30710937 40.77085937 -4.98046875 41.16796875 C-7.70413552 42.29009838 -10.08716109 42.13240177 -13 42 C-18.60149499 32.91757598 -19.55724392 23.4147219 -18 13 C-16.87879929 9.64589956 -15.48964252 7.48309082 -13 5 C-12.53078125 4.48050781 -12.0615625 3.96101563 -11.578125 3.42578125 C-7.91602146 -0.16741174 -4.97767428 -0.90503169 0 0 Z " fill="#FAA294" transform="translate(739,369)"/>
<path d="M0 0 C3.465 -0.0825 6.93 -0.165 10.5 -0.25 C12.11358398 -0.30462402 12.11358398 -0.30462402 13.75976562 -0.36035156 C20.04581957 -0.43225845 24.78250585 0.34395174 30 4 C33.26351231 7.56946659 33.5150373 11.11138115 33.359375 15.78125 C32.80079406 19.22988016 31.23593827 21.38075803 29 24 C28.01 24.66 27.02 25.32 26 26 C27.32038384 29.6150315 28.93170407 32.59250151 31.125 35.75 C34 39.90430622 34 39.90430622 34 41 C30.80813695 41.65140062 28.1674659 41.84331897 25 41 C21.55117194 37.49400905 19.18954994 33.37909987 17 29 C14.87423218 28.53348793 14.87423218 28.53348793 12.4375 28.375 C10.973125 28.25125 9.50875 28.1275 8 28 C8 32.62 8 37.24 8 42 C5.36 42 2.72 42 0 42 C0 28.14 0 14.28 0 0 Z " fill="#F9A295" transform="translate(782,555)"/>
<path d="M0 0 C3.41250245 2.76689388 6.32954173 5.90908346 8.3125 9.875 C8.85089283 16.12035682 8.14052978 20.7709603 4.3125 25.875 C1.01286672 28.8488467 -2.33201621 30.10131531 -6.75 30.3125 C-12.51155543 29.67232717 -15.43355851 28.18593883 -19.4375 24 C-23.09213613 18.92411648 -24.07145839 15.85302999 -23.11328125 9.74609375 C-22.61892477 7.57364648 -21.86865195 5.76484312 -20.6875 3.875 C-19.6975 3.875 -18.7075 3.875 -17.6875 3.875 C-17.6875 3.215 -17.6875 2.555 -17.6875 1.875 C-11.69267528 -1.12241236 -6.53050933 -2.73370158 0 0 Z " fill="#AB8DC5" transform="translate(1049.6875,523.125)"/>
<path d="M0 0 C9.57 0 19.14 0 29 0 C29 2.31 29 4.62 29 7 C22.07 7 15.14 7 8 7 C8 10.63 8 14.26 8 18 C13.94 18 19.88 18 26 18 C26 19.98 26 21.96 26 24 C20.06 24 14.12 24 8 24 C8 27.63 8 31.26 8 35 C15.26 35 22.52 35 30 35 C30 37.31 30 39.62 30 42 C20.1 42 10.2 42 0 42 C0 28.14 0 14.28 0 0 Z " fill="#FAA397" transform="translate(831,555)"/>
<path d="M0 0 C0.14133544 12.15484746 -3.4520906 22.51772694 -11.75 31.5 C-19.59757068 38.57493341 -30.30402935 44 -41 44 C-40.5158875 38.86996911 -38.6876185 35.27309279 -35.875 31.0625 C-35.46467529 30.44205811 -35.05435059 29.82161621 -34.6315918 29.18237305 C-28.46500177 20.05447375 -20.29760277 13.88926558 -11.63134766 7.25097656 C-10.21080193 6.16165057 -8.79805971 5.06216318 -7.38671875 3.9609375 C-2.25251777 0 -2.25251777 0 0 0 Z " fill="#A88CC5" transform="translate(1033,583)"/>
<path d="M0 0 C1.91015625 0.8203125 1.91015625 0.8203125 4.59765625 2.3203125 C4.26765625 4.3003125 3.93765625 6.2803125 3.59765625 8.3203125 C2.64890625 8.1553125 1.70015625 7.9903125 0.72265625 7.8203125 C-3.92930029 7.16390145 -8.72330512 6.81562643 -13.40234375 7.3203125 C-15.63156134 9.08093985 -15.63156134 9.08093985 -15.4140625 11.2890625 C-14.51555799 13.60731468 -14.51555799 13.60731468 -11.671875 14.6640625 C-10.53105469 15.045625 -9.39023437 15.4271875 -8.21484375 15.8203125 C-2.32485457 17.91926698 2.14506546 19.86772171 6.59765625 24.3203125 C6.86328125 26.34375 6.86328125 26.34375 6.84765625 28.6953125 C6.8528125 29.46617187 6.85796875 30.23703125 6.86328125 31.03125 C6.48373763 34.30202296 5.63411512 36.45925436 3.07421875 38.5859375 C-2.95425104 41.79094676 -8.66862198 42.23574657 -15.40234375 41.3203125 C-18.58994529 40.27726094 -21.4855073 38.97024019 -24.40234375 37.3203125 C-23.90734375 34.3503125 -23.90734375 34.3503125 -23.40234375 31.3203125 C-19.40234375 31.3203125 -19.40234375 31.3203125 -17.27734375 32.3203125 C-13.04820351 33.7913178 -8.84352683 33.65831404 -4.40234375 33.3203125 C-3.41234375 32.8253125 -3.41234375 32.8253125 -2.40234375 32.3203125 C-2.40234375 30.6703125 -2.40234375 29.0203125 -2.40234375 27.3203125 C-3.583125 26.87300781 -4.76390625 26.42570313 -5.98046875 25.96484375 C-7.5380642 25.35494192 -9.09533932 24.74422156 -10.65234375 24.1328125 C-11.81830078 23.69485352 -11.81830078 23.69485352 -13.0078125 23.24804688 C-17.70717872 21.38035004 -20.66864827 19.78722728 -23.40234375 15.3203125 C-24.66251564 10.98847161 -24.81062231 9.13686963 -22.77734375 5.0703125 C-16.80890748 -1.84050844 -8.57556206 -2.42625658 0 0 Z " fill="#FA9E92" transform="translate(663.40234375,555.6796875)"/>
<path d="M0 0 C3.97911581 2.06324523 6.64246569 4.20362669 9 8 C9.87570205 13.22265547 9.61426036 17.7259785 7.3125 22.5 C3.68497268 26.42165116 0.96807434 28.15428549 -4.375 28.5625 C-9.00398271 28.42316607 -11.37880357 26.70737165 -14.6875 23.60546875 C-18.33751917 19.14071316 -17.53452952 12.4185184 -17 7 C-13.17804877 0.17508709 -7.3487722 -1.04617938 0 0 Z " fill="#FDFCFB" transform="translate(749,562)"/>
<path d="M0 0 C-0.9012424 7.36713268 -4.45248418 12.2514212 -10.25 16.8125 C-19.8144979 22.94040342 -30.08194146 22.34198095 -41 22 C-41 16.86414138 -39.47705209 15.65010827 -36.11328125 12.0234375 C-25.62888144 1.98477003 -14.22025942 -0.7473421 0 0 Z " fill="#A88CC6" transform="translate(998,593)"/>
<path d="M0 0 C11.55 0 23.1 0 35 0 C35 2.31 35 4.62 35 7 C30.71 7 26.42 7 22 7 C22 18.55 22 30.1 22 42 C19.03 42 16.06 42 13 42 C13 30.45 13 18.9 13 7 C8.71 7 4.42 7 0 7 C0 4.69 0 2.38 0 0 Z " fill="#FBA79B" transform="translate(680,555)"/>
<path d="M0 0 C2.11198504 2.11198504 2.76333342 3.57927018 3.875 6.3125 C6.6268555 12.53408635 8.81812938 15.70351586 15.25 18.3125 C16.82811768 18.88947077 18.40993241 19.45682806 20 20 C19 22 19 22 17.109375 22.640625 C16.33078125 22.84171875 15.5521875 23.0428125 14.75 23.25 C10.14092302 24.73279339 7.38544474 26.74654155 5 31 C3.50859771 34.28206623 2.20204949 37.6020277 1 41 C-1.23068721 38.76931279 -1.46793979 37.67035787 -2.25 34.6875 C-3.73216766 30.10892266 -5.82476852 27.42663026 -10 25 C-12.95160555 23.53384299 -15.93814719 22.21793701 -19 21 C-16.86224011 18.86224011 -15.40527526 18.2728234 -12.625 17.1875 C-6.35903617 14.43047592 -4.28513825 10.9069222 -1.75 4.6875 C-1.15815105 3.12820566 -0.57192576 1.56671151 0 0 Z " fill="#AB8DC7" transform="translate(1015,401)"/>
<path d="M0 0 C4.47054631 0.8434993 5.99621696 2.8641776 8.76953125 6.34765625 C12.96331709 12.53747181 13.46873979 18.03115812 14.3125 25.625 C6.7225 25.955 -0.8675 26.285 -8.6875 26.625 C-9.26320093 9.35397196 -9.26320093 9.35397196 -4.6875 2.625 C-2.6875 0.625 -2.6875 0.625 0 0 Z " fill="#FBFAFC" transform="translate(465.6875,469.375)"/>
<path d="M0 0 C0.33 0 0.66 0 1 0 C1.06993164 0.94987793 1.13986328 1.89975586 1.21191406 2.87841797 C1.55601999 7.54408848 1.90276358 12.20956154 2.25 16.875 C2.31458405 17.74415039 2.37916809 18.61330078 2.44570923 19.50878906 C3.28981411 30.84490521 4.16810571 42.17773306 5.08984375 53.5078125 C5.18107513 54.63226776 5.27230652 55.75672302 5.36630249 56.91525269 C5.81643648 62.45802335 6.27031256 68.00045194 6.72949219 73.54248047 C6.89660229 75.5908107 7.06359984 77.63915011 7.23046875 79.6875 C7.308452 80.61305695 7.38643524 81.53861389 7.46678162 82.49221802 C7.88606212 87.6822404 8.07463515 92.79296674 8 98 C7.67 98 7.34 98 7 98 C6.67 99.98 6.34 101.96 6 104 C5.67 104 5.34 104 5 104 C2.90334805 82.13684154 1.2996432 60.26869659 0.00268555 38.34350586 C-0.05710983 37.35413528 -0.11690521 36.36476471 -0.17851257 35.34541321 C-0.29099796 33.48061152 -0.40031519 31.61561509 -0.50593567 29.75041199 C-0.55634506 28.91834732 -0.60675446 28.08628265 -0.65869141 27.22900391 C-0.70071686 26.50548737 -0.74274231 25.78197083 -0.78604126 25.03652954 C-0.9530412 22.98434098 -0.9530412 22.98434098 -1.51083374 20.97225952 C-2.32861952 17.67504561 -2.18446004 14.31489669 -2.1875 10.9375 C-2.19974609 10.21755859 -2.21199219 9.49761719 -2.22460938 8.75585938 C-2.23519011 4.9573753 -2.15755655 3.23633482 0 0 Z " fill="#F4F0F8" transform="translate(428,498)"/>
<path d="M0 0 C2 1 2 1 2.7109375 2.70703125 C3.03964844 3.74923828 3.03964844 3.74923828 3.375 4.8125 C4.66850967 8.40987265 5.85612886 10.66455287 9 13 C12.13350717 14.26784124 12.13350717 14.26784124 15 15 C12 17 12 17 9.0625 18.5625 C5.03113954 21.77113383 3.72713969 25.24528604 2 30 C1.34 30 0.68 30 0 30 C-0.37125 28.7625 -0.7425 27.525 -1.125 26.25 C-3.26359344 20.51329911 -7.64548442 18.47131488 -13 16 C-11.0283713 14.68558087 -9.02817985 13.41285866 -7 12.1875 C-3.07767118 9.32746857 -1.45930091 6.87895827 -0.3125 2.1875 C-0.209375 1.465625 -0.10625 0.74375 0 0 Z " fill="#F9A296" transform="translate(1044,433)"/>
<path d="M0 0 C5.82033607 0.55431772 9.63585405 2.40576685 13.60546875 6.76171875 C19.71475539 14.43980987 21.4786414 21.28035632 21.1875 31 C21.16719727 32.30517578 21.16719727 32.30517578 21.14648438 33.63671875 C21.11151678 35.75808627 21.0577253 37.87912974 21 40 C19.02 40.495 19.02 40.495 17 41 C15.70939106 38.41878212 15.84403527 36.07625735 15.76049805 33.23535156 C15.52349342 25.77485798 15.086349 19.46760273 11 13 C10.443125 12.0925 9.88625 11.185 9.3125 10.25 C5.98824195 7.01558677 2.1222723 5.06994443 -2 3 C-1.34 2.67 -0.68 2.34 0 2 C0 1.34 0 0.68 0 0 Z " fill="#A78DC8" transform="translate(474,463)"/>
<path d="M0 0 C2.0625 -0.061875 4.125 -0.12375 6.25 -0.1875 C7.99023438 -0.23970703 7.99023438 -0.23970703 9.765625 -0.29296875 C13.25632522 0.02321786 14.61221494 0.47312066 17 3 C17.55956684 6.84702201 17.71977708 9.01292706 15.390625 12.20703125 C10.88742132 15.58443401 5.41110334 14.21644413 0 14 C0 9.38 0 4.76 0 0 Z " fill="#FDFAFA" transform="translate(790,562)"/>
<path d="M0 0 C0.556875 0.226875 1.11375 0.45375 1.6875 0.6875 C0.924375 1.368125 0.16125 2.04875 -0.625 2.75 C-5.92840509 8.54674509 -6.83597984 14.56491725 -7.5 22.125 C-7.58185547 22.95193359 -7.66371094 23.77886719 -7.74804688 24.63085938 C-7.94633855 26.64876882 -8.13085402 28.66802412 -8.3125 30.6875 C-10.6225 30.6875 -12.9325 30.6875 -15.3125 30.6875 C-15.730898 21.6686986 -15.72699517 12.68320043 -9.9375 5.25 C-4.0050304 -0.54122032 -4.0050304 -0.54122032 0 0 Z " fill="#F6F3F9" transform="translate(459.3125,466.3125)"/>
<path d="M0 0 C6.17704939 1.50659741 10.90250059 4.65790003 14.296875 10.06640625 C16.60632909 14.61000614 18.13718497 18.53423674 18.0625 23.6875 C18.05347656 24.49574219 18.04445313 25.30398438 18.03515625 26.13671875 C18.02355469 26.75160156 18.01195312 27.36648438 18 28 C16.35 28 14.7 28 13 28 C12.78085937 27.02160156 12.56171875 26.04320312 12.3359375 25.03515625 C10.42490628 16.97218931 8.25814683 10.57618897 3 4 C1.99814137 2.66806266 0.99763016 1.33510743 0 0 Z " fill="#F8F5FA" transform="translate(472,466)"/>
<path d="M0 0 C0.33 0 0.66 0 1 0 C1.66 11.22 2.32 22.44 3 34 C2.67 34 2.34 34 2 34 C1.505 36.475 1.505 36.475 1 39 C0.67 39 0.34 39 0 39 C-0.06058594 37.89140625 -0.12117188 36.7828125 -0.18359375 35.640625 C-0.26802951 34.1770718 -0.35267599 32.71353075 -0.4375 31.25 C-0.47681641 30.52039063 -0.51613281 29.79078125 -0.55664062 29.0390625 C-0.77627432 24.98037512 -0.77627432 24.98037512 -1.50927734 20.9934082 C-2.32323731 17.68694892 -2.1844527 14.32305415 -2.1875 10.9375 C-2.19974609 10.21755859 -2.21199219 9.49761719 -2.22460938 8.75585938 C-2.23519011 4.9573753 -2.15755655 3.23633482 0 0 Z " fill="#EEE8F3" transform="translate(428,498)"/>
<path d="M0 0 C0 3.96 0 7.92 0 12 C-1.32 12 -2.64 12 -4 12 C-5.29243536 7.8803623 -6.26252625 4.33168317 -6 0 C-2.25 -1.125 -2.25 -1.125 0 0 Z " fill="#907AB6" transform="translate(457,497)"/>
<path d="M0 0 C0.33 0 0.66 0 1 0 C1 3.96 1 7.92 1 12 C-0.32 12.33 -1.64 12.66 -3 13 C-4.60725635 9.78548731 -4.05748185 6.56387464 -4 3 C-2.68 3 -1.36 3 0 3 C0 2.01 0 1.02 0 0 Z " fill="#947BB9" transform="translate(494,491)"/>
<path d="M0 0 C0.33 0 0.66 0 1 0 C1.33 6.6 1.66 13.2 2 20 C1.67 20 1.34 20 1 20 C0.67 21.98 0.34 23.96 0 26 C-0.33 26 -0.66 26 -1 26 C-1.33 20.39 -1.66 14.78 -2 9 C-1.67 9 -1.34 9 -1 9 C-0.67 6.03 -0.34 3.06 0 0 Z " fill="#EDE8F4" transform="translate(434,576)"/>
<path d="M0 0 C2 1 2 1 3 3 C1.04414675 4.00484204 -0.91476237 5.00373805 -2.875 6 C-3.96554687 6.556875 -5.05609375 7.11375 -6.1796875 7.6875 C-9 9 -9 9 -11 9 C-11.33 7.68 -11.66 6.36 -12 5 C-11.30132813 4.72285156 -10.60265625 4.44570313 -9.8828125 4.16015625 C-8.97273438 3.79792969 -8.06265625 3.43570313 -7.125 3.0625 C-6.22007813 2.70285156 -5.31515625 2.34320312 -4.3828125 1.97265625 C-2.03862333 1.05098738 -2.03862333 1.05098738 0 0 Z " fill="#FBEEED" transform="translate(1068,524)"/>
<path d="M0 0 C0.33 0 0.66 0 1 0 C1.0272367 2.52090778 1.04695207 5.04151457 1.0625 7.5625 C1.07087891 8.26697266 1.07925781 8.97144531 1.08789062 9.69726562 C1.10882603 14.24024798 0.74800682 18.51784892 0 23 C-2.49931612 19.20143621 -2.2973378 15.32019162 -2.25 10.9375 C-2.25773437 10.21755859 -2.26546875 9.49761719 -2.2734375 8.75585938 C-2.25937918 4.97065637 -2.1475969 3.22139535 0 0 Z " fill="#D6C8E4" transform="translate(428,498)"/>
<path d="M0 0 C0.66 0.33 1.32 0.66 2 1 C1.7421875 2.859375 1.7421875 2.859375 1 5 C-0.7421875 6.265625 -0.7421875 6.265625 -2.875 7.25 C-3.57367188 7.58515625 -4.27234375 7.9203125 -4.9921875 8.265625 C-7 9 -7 9 -10 9 C-8.77946141 5.33838422 -7.63217696 4.83729526 -4.4375 2.8125 C-3.61121094 2.28269531 -2.78492188 1.75289062 -1.93359375 1.20703125 C-1.29550781 0.80871094 -0.65742188 0.41039062 0 0 Z " fill="#AD87C6" transform="translate(453,626)"/>
<path d="M0 0 C1.98 0.66 3.96 1.32 6 2 C6.33 1.34 6.66 0.68 7 0 C8.32 1.65 9.64 3.3 11 5 C10.67 5.66 10.34 6.32 10 7 C9.67 6.01 9.34 5.02 9 4 C8.34 4 7.68 4 7 4 C6.67 4.99 6.34 5.98 6 7 C4.02 4.69 2.04 2.38 0 0 Z " fill="#9E85BE" transform="translate(468,469)"/>
<path d="M0 0 C0 0.99 0 1.98 0 3 C-2.95664519 4.4783226 -5.74229737 4.06032783 -9 4 C-9.33 3.01 -9.66 2.02 -10 1 C-6.56484998 0.37542727 -3.50935186 0 0 0 Z " fill="#FCEBE8" transform="translate(1027,539)"/>
<path d="M0 0 C1.91789713 0.28346278 3.83429183 0.5771028 5.75 0.875 C7.35101562 1.11863281 7.35101562 1.11863281 8.984375 1.3671875 C11.67708871 1.93223882 13.63572439 2.63422914 16 4 C16 4.66 16 5.32 16 6 C10.30860098 4.90301833 5.25432063 3.45946923 0 1 C0 0.67 0 0.34 0 0 Z " fill="#FDE7E1" transform="translate(1011,528)"/>
<path d="M0 0 C3 1 3 1 4 3 C4.039992 4.99960012 4.04346799 7.00047242 4 9 C3.01 9.495 3.01 9.495 2 10 C0.68373308 6.38026598 0 3.90432869 0 0 Z " fill="#F49088" transform="translate(1047,552)"/>
<path d="M0 0 C0 3.63195496 -0.95453155 4.74713911 -3 7.6875 C-3.556875 8.49574219 -4.11375 9.30398438 -4.6875 10.13671875 C-5.120625 10.75160156 -5.55375 11.36648438 -6 12 C-6.66 11.67 -7.32 11.34 -8 11 C-6.63629701 8.00779732 -5.05091917 5.70973471 -2.875 3.25 C-2.33617187 2.63640625 -1.79734375 2.0228125 -1.2421875 1.390625 C-0.62730469 0.70226562 -0.62730469 0.70226562 0 0 Z " fill="#FCF0EC" transform="translate(1059,514)"/>
<path d="M0 0 C0.66 0 1.32 0 2 0 C1.67 2.97 1.34 5.94 1 9 C0.01 9 -0.98 9 -2 9 C-2.33 8.34 -2.66 7.68 -3 7 C-2.06421005 4.64018187 -1.06652192 2.30368736 0 0 Z " fill="#FAE4E1" transform="translate(1037,552)"/>
<path d="M0 0 C0 3.51716303 -0.82445585 4.37121748 -3 7 C-1.02 7 0.96 7 3 7 C3 7.33 3 7.66 3 8 C0.69 8 -1.62 8 -4 8 C-4.25 5.6875 -4.25 5.6875 -4 3 C-2 1.1875 -2 1.1875 0 0 Z " fill="#F8AAA0" transform="translate(1062,530)"/>
<path d="M0 0 C1.65 0.33 3.3 0.66 5 1 C5 2.32 5 3.64 5 5 C4.34 5 3.68 5 3 5 C3 4.01 3 3.02 3 2 C1.02 2.66 -0.96 3.32 -3 4 C-2.01 2.68 -1.02 1.36 0 0 Z " fill="#B9A4CF" transform="translate(535,414)"/>
<path d="M0 0 C0.66 1.65 1.32 3.3 2 5 C0.68 4.67 -0.64 4.34 -2 4 C-2 3.34 -2 2.68 -2 2 C-3.65 2 -5.3 2 -7 2 C-4.35261084 0.5393715 -3.10551666 0 0 0 Z " fill="#EB9BA0" transform="translate(1028,542)"/>
</svg>
